<?xml version="1.0" encoding="UTF-8" standalone="no"?>
<svg
   width="128"
   height="128"
   version="1.1"
   id="svg1"
   sodipodi:docname="bullets.svg"
   inkscape:version="1.3.2 (091e20e, 2023-11-25, custom)"
   xmlns:inkscape="http://www.inkscape.org/namespaces/inkscape"
   xmlns:sodipodi="http://sodipodi.sourceforge.net/DTD/sodipodi-0.dtd"
   xmlns="http://www.w3.org/2000/svg"
   xmlns:svg="http://www.w3.org/2000/svg">
  <defs
     id="defs1" />
  <sodipodi:namedview
     id="namedview1"
     pagecolor="#ffffff"
     bordercolor="#000000"
     borderopacity="0.25"
     inkscape:showpageshadow="2"
     inkscape:pageopacity="0.0"
     inkscape:pagecheckerboard="0"
     inkscape:deskcolor="#d1d1d1"
     inkscape:zoom="5.5625"
     inkscape:cx="64"
     inkscape:cy="63.910112"
     inkscape:window-width="1280"
     inkscape:window-height="1001"
     inkscape:window-x="-8"
     inkscape:window-y="-8"
     inkscape:window-maximized="1"
     inkscape:current-layer="svg1" />
  <path
     d="M21.22 59.882h24.707v45.298H21.22zM41.81 49.1v-9.81H25.337v9.81l-3.332 6.663H45.14zm-3.636-36.646l-2.627-8.757a2.061 2.061 0 0 0-1.973-1.468 2.06 2.06 0 0 0-1.972 1.468l-2.63 8.757c-2.215 7.386-3.376 15.02-3.56 22.719h16.322c-.183-7.699-1.345-15.333-3.56-22.719zm7.593 96.634H21.236v11.775s2.26 4.906 5.058 4.906h14.56c2.797 0 4.913-4.906 4.913-4.906zm60.837 0H82.073v11.775s2.26 4.906 5.057 4.906h14.562c2.796 0 4.912-4.906 4.912-4.906zm-3.941-43.532v-9.81H86.19v9.81l-3.332 6.662h23.135zm-20.59 10.781h24.707v28.826H82.073zM99.027 28.91L96.4 20.154a2.061 2.061 0 0 0-1.972-1.468 2.06 2.06 0 0 0-1.973 1.468l-2.63 8.757c-2.215 7.386-3.376 15.02-3.56 22.719h16.322c-.183-7.698-1.344-15.333-3.56-22.719zM51.654 68.102h24.708v37.062H51.654zm20.59-10.781v-9.81h-16.47v9.81l-3.332 6.663h23.135zM68.61 20.675l-2.627-8.757a2.061 2.061 0 0 0-1.973-1.468 2.06 2.06 0 0 0-1.972 1.468l-2.63 8.757c-2.215 7.386-3.376 15.02-3.56 22.72H72.17c-.183-7.7-1.344-15.334-3.56-22.72zm7.576 88.414h-24.53v11.775s2.259 4.906 5.057 4.906h14.561c2.796 0 4.912-4.906 4.912-4.906z"
     fill="#fff"
     id="path1" />
</svg>
