<?xml version="1.0" encoding="UTF-8" standalone="no"?>
<svg
   width="72"
   height="72"
   viewBox="0 0 104.58 104.58"
   id="svg8"
   version="1.1"
   sodipodi:docname="checked.svg"
   inkscape:version="1.3.2 (091e20e, 2023-11-25, custom)"
   xmlns:inkscape="http://www.inkscape.org/namespaces/inkscape"
   xmlns:sodipodi="http://sodipodi.sourceforge.net/DTD/sodipodi-0.dtd"
   xmlns="http://www.w3.org/2000/svg"
   xmlns:svg="http://www.w3.org/2000/svg">
  <sodipodi:namedview
     id="namedview1"
     pagecolor="#ffffff"
     bordercolor="#000000"
     borderopacity="0.25"
     inkscape:showpageshadow="2"
     inkscape:pageopacity="0.0"
     inkscape:pagecheckerboard="0"
     inkscape:deskcolor="#d1d1d1"
     inkscape:zoom="9.8888889"
     inkscape:cx="36"
     inkscape:cy="35.949438"
     inkscape:window-width="1280"
     inkscape:window-height="1001"
     inkscape:window-x="-8"
     inkscape:window-y="-8"
     inkscape:window-maximized="1"
     inkscape:current-layer="svg8" />
  <defs
     id="defs4">
    <style
       id="style2" />
  </defs>
  <path
     d="M88.48 7.588a3.84 3.84 0 0 0-3.063 1.918L45.683 80.013 17.856 54.22c-1.575-1.437-3.936-1.507-5.443 0l-3.08 3.077a3.841 3.841 0 0 0 0 5.444l35.469 33.373c.125.126.261.208.404.272 1.556.95 4.485.864 5.462-.83l45.185-80.025a3.84 3.84 0 0 0-1.408-5.257l-3.771-2.178a3.835 3.835 0 0 0-2.193-.508z"
     id="rect4484"
     fill="#fff"
     stroke="#fff"
     stroke-width="5.81"
     stroke-miterlimit="10" />
</svg>
