<?xml version="1.0" encoding="UTF-8" standalone="no"?>
<svg
   width="128"
   height="128"
   version="1.1"
   id="svg1"
   sodipodi:docname="cog.svg"
   inkscape:version="1.3.2 (091e20e, 2023-11-25, custom)"
   xmlns:inkscape="http://www.inkscape.org/namespaces/inkscape"
   xmlns:sodipodi="http://sodipodi.sourceforge.net/DTD/sodipodi-0.dtd"
   xmlns="http://www.w3.org/2000/svg"
   xmlns:svg="http://www.w3.org/2000/svg">
  <defs
     id="defs1" />
  <sodipodi:namedview
     id="namedview1"
     pagecolor="#ffffff"
     bordercolor="#000000"
     borderopacity="0.25"
     inkscape:showpageshadow="2"
     inkscape:pageopacity="0.0"
     inkscape:pagecheckerboard="0"
     inkscape:deskcolor="#d1d1d1"
     inkscape:zoom="5.5625"
     inkscape:cx="64"
     inkscape:cy="63.910112"
     inkscape:window-width="1280"
     inkscape:window-height="1001"
     inkscape:window-x="-8"
     inkscape:window-y="-8"
     inkscape:window-maximized="1"
     inkscape:current-layer="svg1" />
  <path
     d="M60.267 22.84c-4.483.406-8.86 1.47-12.868 3.227 2.641 5.63 2.444 11.464-1.155 14.163-3.58 2.684-9.29 1.368-13.942-2.697a40.79 40.79 0 0 0-6.681 11.279c5.814 2.12 9.733 6.473 9.098 10.913-.636 4.44-5.62 7.517-11.794 7.922a41.301 41.301 0 0 0 3.254 12.696c3.061-1.406 6.152-1.906 8.782-1.536 2.24.321 4.112 1.206 5.354 2.863 2.719 3.625 1.307 9.403-2.884 14.087 3.354 2.81 7.256 5.06 11.445 6.708 2.12-5.814 6.472-9.733 10.914-9.098 4.441.635 7.517 5.62 7.921 11.794 4.484-.407 8.861-1.47 12.869-3.228-2.71-5.67-2.451-11.615 1.176-14.334 1.656-1.243 3.878-1.55 6.117-1.224 2.597.37 5.36 1.761 7.83 3.915a41.352 41.352 0 0 0 6.681-11.274c-5.814-2.119-9.733-6.47-9.098-10.913.636-4.442 5.614-7.523 11.79-7.927a40.852 40.852 0 0 0-3.25-12.696c-5.605 2.598-11.456 2.26-14.141-1.321-2.698-3.6-1.247-9.257 2.868-13.921-3.355-2.81-7.261-5.06-11.45-6.708-2.12 5.814-6.472 9.738-10.914 9.103-4.442-.635-7.518-5.62-7.922-11.794zm3.722 19.096c12.168 0 22.064 9.896 22.064 22.064 0 12.169-9.896 22.064-22.064 22.064S41.925 76.17 41.925 64c0-12.168 9.896-22.063 22.064-22.063z"
     fill="#fff"
     id="path1" />
</svg>
