<?xml version="1.0" encoding="UTF-8" standalone="no"?>
<svg
   width="16"
   height="12"
   viewBox="0 0 16 12"
   fill="none"
   version="1.1"
   id="svg1"
   sodipodi:docname="item-outfit-style.svg"
   inkscape:version="1.3.2 (091e20e, 2023-11-25, custom)"
   xmlns:inkscape="http://www.inkscape.org/namespaces/inkscape"
   xmlns:sodipodi="http://sodipodi.sourceforge.net/DTD/sodipodi-0.dtd"
   xmlns="http://www.w3.org/2000/svg"
   xmlns:svg="http://www.w3.org/2000/svg">
  <defs
     id="defs1" />
  <sodipodi:namedview
     id="namedview1"
     pagecolor="#ffffff"
     bordercolor="#000000"
     borderopacity="0.25"
     inkscape:showpageshadow="2"
     inkscape:pageopacity="0.0"
     inkscape:pagecheckerboard="0"
     inkscape:deskcolor="#d1d1d1"
     inkscape:zoom="71.75"
     inkscape:cx="8"
     inkscape:cy="6"
     inkscape:window-width="1920"
     inkscape:window-height="1057"
     inkscape:window-x="1272"
     inkscape:window-y="-8"
     inkscape:window-maximized="1"
     inkscape:current-layer="svg1" />
  <path
     d="M12.7782 1.86722C12.0033 1.23382 10.1684 0.830627 10.1684 0.830627H10.1133C9.60723 1.39587 8.87238 1.75211 8.0538 1.75211C7.23523 1.75211 6.50037 1.39587 5.9937 0.830627H5.93862C5.93862 0.830627 4.30801 1.09922 3.32868 1.86722C2.34936 2.63522 0.786621 4.3539 0.786621 4.3539L3.50208 6.52563L4.30801 5.78365V11.2004C4.30801 11.2004 5.53445 11.8314 8.0538 11.8314C10.5732 11.8314 11.7995 11.2004 11.7995 11.2004V5.78365L12.6048 6.52563L15.321 4.3539C15.321 4.3539 13.5531 2.50061 12.7782 1.86722Z"
     fill="white"
     id="path1" />
</svg>
