<?xml version="1.0" encoding="UTF-8" standalone="no"?>
<svg
   width="128"
   height="128"
   viewBox="0 0 33.867 33.867"
   version="1.1"
   id="svg2"
   sodipodi:docname="loadout-player-icon.svg"
   inkscape:version="1.3.2 (091e20e, 2023-11-25, custom)"
   xmlns:inkscape="http://www.inkscape.org/namespaces/inkscape"
   xmlns:sodipodi="http://sodipodi.sourceforge.net/DTD/sodipodi-0.dtd"
   xmlns="http://www.w3.org/2000/svg"
   xmlns:svg="http://www.w3.org/2000/svg">
  <defs
     id="defs2" />
  <sodipodi:namedview
     id="namedview2"
     pagecolor="#ffffff"
     bordercolor="#000000"
     borderopacity="0.25"
     inkscape:showpageshadow="2"
     inkscape:pageopacity="0.0"
     inkscape:pagecheckerboard="0"
     inkscape:deskcolor="#d1d1d1"
     inkscape:zoom="5.5625"
     inkscape:cx="64"
     inkscape:cy="63.910112"
     inkscape:window-width="1280"
     inkscape:window-height="1001"
     inkscape:window-x="-8"
     inkscape:window-y="-8"
     inkscape:window-maximized="1"
     inkscape:current-layer="svg2" />
  <g
     fill="#fff"
     id="g2">
    <path
       d="M16.92 2.384a12.7 12.7 0 0 0-12.7 12.7 12.7 12.7 0 0 0 1.198 5.351 5.82 5.81 0 0 1 2.506-.572 5.82 5.81 0 0 1 5.82 5.81 5.82 5.81 0 0 1-.237 1.63 12.7 12.7 0 0 0 3.413.481 12.7 12.7 0 0 0 3.412-.48 5.82 5.81 0 0 1-.237-1.631 5.82 5.81 0 0 1 5.82-5.81 5.82 5.81 0 0 1 2.506.574 12.7 12.7 0 0 0 1.199-5.353 12.7 12.7 0 0 0-12.7-12.7z"
       id="path1" />
    <path
       d="M11.655 26.73a4.763 4.754 0 0 1-4.762 4.753 4.763 4.754 0 0 1-4.763-4.754 4.763 4.754 0 0 1 4.763-4.753 4.763 4.754 0 0 1 4.762 4.753zm20.082 0a4.763 4.754 0 0 1-4.763 4.753 4.763 4.754 0 0 1-4.762-4.754 4.763 4.754 0 0 1 4.762-4.753 4.763 4.754 0 0 1 4.763 4.753z"
       id="path2" />
  </g>
</svg>
