<?xml version="1.0" encoding="UTF-8" standalone="no"?>
<svg
   width="128"
   height="128"
   version="1.1"
   id="svg3"
   sodipodi:docname="ping-team-help.svg"
   inkscape:version="1.3.2 (091e20e, 2023-11-25, custom)"
   xmlns:inkscape="http://www.inkscape.org/namespaces/inkscape"
   xmlns:sodipodi="http://sodipodi.sourceforge.net/DTD/sodipodi-0.dtd"
   xmlns="http://www.w3.org/2000/svg"
   xmlns:svg="http://www.w3.org/2000/svg">
  <defs
     id="defs3" />
  <sodipodi:namedview
     id="namedview3"
     pagecolor="#ffffff"
     bordercolor="#000000"
     borderopacity="0.25"
     inkscape:showpageshadow="2"
     inkscape:pageopacity="0.0"
     inkscape:pagecheckerboard="0"
     inkscape:deskcolor="#d1d1d1"
     inkscape:zoom="5.5625"
     inkscape:cx="64"
     inkscape:cy="63.910112"
     inkscape:window-width="1280"
     inkscape:window-height="1001"
     inkscape:window-x="-8"
     inkscape:window-y="-8"
     inkscape:window-maximized="1"
     inkscape:current-layer="svg3" />
  <circle
     cx="64"
     cy="64"
     r="57.978"
     fill="none"
     stroke="#fff"
     stroke-width="8.931"
     stroke-linejoin="round"
     id="circle1" />
  <g
     fill="#fff"
     id="g3">
    <path
       d="M37.891 65.917h24.243v30.708h-20.9s-2.095.134-2.768-.52c-.649-.633-.575-2.658-.575-2.658zm52.218 0H65.866v30.708h20.9s2.095.134 2.768-.52c.649-.633.575-2.658.575-2.658z"
       stroke-width=".399"
       stroke-linejoin="round"
       id="path1" />
    <path
       d="M34.659 62.185v-12.93h27.475v12.93zm31.207 0v-12.93H93.34v12.93z"
       stroke-width=".866"
       id="path2" />
    <path
       d="M62.134 45.394l-3.419-8.206s-1.352-3.31-3.376-4.659a6.934 6.934 0 0 0-7.693 11.54c2.024 1.35 5.598 1.325 5.598 1.325zm3.732 0l3.419-8.206s1.352-3.31 3.376-4.659a6.934 6.934 0 0 1 7.693 11.54c-2.024 1.35-5.598 1.325-5.598 1.325z"
       stroke-width=".135"
       id="path3" />
  </g>
</svg>
