<?xml version="1.0" encoding="UTF-8" standalone="no"?>
<svg
   width="128"
   height="128"
   version="1.1"
   id="svg2"
   sodipodi:docname="player-gui.svg"
   inkscape:version="1.3.2 (091e20e, 2023-11-25, custom)"
   xmlns:inkscape="http://www.inkscape.org/namespaces/inkscape"
   xmlns:sodipodi="http://sodipodi.sourceforge.net/DTD/sodipodi-0.dtd"
   xmlns="http://www.w3.org/2000/svg"
   xmlns:svg="http://www.w3.org/2000/svg">
  <defs
     id="defs2" />
  <sodipodi:namedview
     id="namedview2"
     pagecolor="#ffffff"
     bordercolor="#000000"
     borderopacity="0.25"
     inkscape:showpageshadow="2"
     inkscape:pageopacity="0.0"
     inkscape:pagecheckerboard="0"
     inkscape:deskcolor="#d1d1d1"
     inkscape:zoom="5.5625"
     inkscape:cx="64"
     inkscape:cy="63.910112"
     inkscape:window-width="1280"
     inkscape:window-height="1001"
     inkscape:window-x="-8"
     inkscape:window-y="-8"
     inkscape:window-maximized="1"
     inkscape:current-layer="svg2" />
  <path
     d="M64 10.021a48 48 0 0 0-48 48 48 48 0 0 0 4.53 20.225A22 21.958 0 0 1 30 76.084a22 21.958 0 0 1 22 21.957 22 21.958 0 0 1-.898 6.164A48 48 0 0 0 64 106.021a48 48 0 0 0 12.898-1.816A22 21.958 0 0 1 76 98.041a22 21.958 0 0 1 22-21.957 22 21.958 0 0 1 9.469 2.168A48 48 0 0 0 112 58.022a48 48 0 0 0-48-48z"
     fill="#fff"
     stroke-width="24.414"
     id="path1" />
  <path
     d="M44.102 102.034a18 17.966 0 0 1-18 17.966 18 17.966 0 0 1-18-17.966 18 17.966 0 0 1 18-17.965 18 17.966 0 0 1 18 17.965zm75.898 0A18 17.966 0 0 1 102 120a18 17.966 0 0 1-18-17.966 18 17.966 0 0 1 18-17.965 18 17.966 0 0 1 18 17.965z"
     fill="#fff"
     stroke-width="9.146"
     id="path2" />
</svg>
