<?xml version="1.0" encoding="UTF-8" standalone="no"?>
<svg
   width="128"
   height="128"
   version="1.1"
   id="svg1"
   sodipodi:docname="quit.svg"
   inkscape:version="1.3.2 (091e20e, 2023-11-25, custom)"
   xmlns:inkscape="http://www.inkscape.org/namespaces/inkscape"
   xmlns:sodipodi="http://sodipodi.sourceforge.net/DTD/sodipodi-0.dtd"
   xmlns="http://www.w3.org/2000/svg"
   xmlns:svg="http://www.w3.org/2000/svg">
  <defs
     id="defs1" />
  <sodipodi:namedview
     id="namedview1"
     pagecolor="#ffffff"
     bordercolor="#000000"
     borderopacity="0.25"
     inkscape:showpageshadow="2"
     inkscape:pageopacity="0.0"
     inkscape:pagecheckerboard="0"
     inkscape:deskcolor="#d1d1d1"
     inkscape:zoom="5.5625"
     inkscape:cx="64"
     inkscape:cy="63.910112"
     inkscape:window-width="1280"
     inkscape:window-height="1001"
     inkscape:window-x="-8"
     inkscape:window-y="-8"
     inkscape:window-maximized="1"
     inkscape:current-layer="svg1" />
  <path
     d="M59.752 28.12v31.762h8.496V28.12h-8.496zm-4.418 7.008C41.142 38.9 30.695 51.714 30.695 66.94c0 18.192 14.911 32.94 33.305 32.94 18.393 0 33.305-14.748 33.305-32.94 0-15.227-10.447-28.041-24.64-31.813v7.732c10.008 3.523 17.172 12.974 17.172 24.081 0 14.113-11.568 25.554-25.837 25.554-14.27 0-25.837-11.441-25.837-25.554 0-11.107 7.164-20.558 17.171-24.081v-7.733z"
     fill="#fff"
     id="path1" />
</svg>
