<?xml version="1.0" encoding="UTF-8" standalone="no"?>
<svg
   width="128"
   height="128"
   version="1.1"
   id="svg1"
   sodipodi:docname="target.svg"
   inkscape:version="1.3.2 (091e20e, 2023-11-25, custom)"
   xmlns:inkscape="http://www.inkscape.org/namespaces/inkscape"
   xmlns:sodipodi="http://sodipodi.sourceforge.net/DTD/sodipodi-0.dtd"
   xmlns="http://www.w3.org/2000/svg"
   xmlns:svg="http://www.w3.org/2000/svg">
  <defs
     id="defs1" />
  <sodipodi:namedview
     id="namedview1"
     pagecolor="#ffffff"
     bordercolor="#000000"
     borderopacity="0.25"
     inkscape:showpageshadow="2"
     inkscape:pageopacity="0.0"
     inkscape:pagecheckerboard="0"
     inkscape:deskcolor="#d1d1d1"
     inkscape:zoom="5.5625"
     inkscape:cx="64"
     inkscape:cy="63.910112"
     inkscape:window-width="1280"
     inkscape:window-height="1001"
     inkscape:window-x="-8"
     inkscape:window-y="-8"
     inkscape:window-maximized="1"
     inkscape:current-layer="svg1" />
  <path
     d="M10.2 68.1h9c1.9 21.6 19.2 38.8 40.7 40.7v9c0 2.2 1.8 4.1 4.1 4.1 2.2 0 4.1-1.8 4.1-4.1v-9c21.6-1.9 38.8-19.2 40.7-40.7h9c2.2 0 4.1-1.8 4.1-4.1 0-2.2-1.8-4.1-4.1-4.1h-9c-1.9-21.6-19.2-38.8-40.7-40.7v-9c0-2.2-1.8-4.1-4.1-4.1-2.2 0-4.1 1.8-4.1 4.1v9c-21.6 1.9-38.8 19.2-40.7 40.7h-9c-2.3 0-4.1 1.8-4.1 4.1s1.9 4.1 4.1 4.1zm33.7-8.2H27.4c1.9-17.1 15.5-30.7 32.5-32.5v16.5c0 2.2 1.8 4.1 4.1 4.1 2.2 0 4.1-1.8 4.1-4.1V27.4c17.1 1.9 30.7 15.5 32.5 32.5H84.1c-2.2 0-4.1 1.8-4.1 4.1 0 2.2 1.8 4.1 4.1 4.1h16.5c-1.9 17.1-15.5 30.7-32.5 32.5V84.1c0-2.2-1.8-4.1-4.1-4.1-2.2 0-4.1 1.8-4.1 4.1v16.5c-17.1-1.9-30.7-15.5-32.5-32.5h16.5c2.2 0 4.1-1.8 4.1-4.1 0-2.2-1.9-4.1-4.1-4.1z"
     fill="#fff"
     id="path1" />
</svg>
