<?xml version="1.0" encoding="UTF-8" standalone="no"?>
<svg
   width="128"
   height="128"
   viewBox="0 0 128 128"
   fill="none"
   version="1.1"
   id="svg6"
   sodipodi:docname="heal-pacing-pack.svg"
   inkscape:version="1.3.2 (091e20e, 2023-11-25, custom)"
   xmlns:inkscape="http://www.inkscape.org/namespaces/inkscape"
   xmlns:sodipodi="http://sodipodi.sourceforge.net/DTD/sodipodi-0.dtd"
   xmlns="http://www.w3.org/2000/svg"
   xmlns:svg="http://www.w3.org/2000/svg">
  <defs
     id="defs6" />
  <sodipodi:namedview
     id="namedview6"
     pagecolor="#ffffff"
     bordercolor="#000000"
     borderopacity="0.25"
     inkscape:showpageshadow="2"
     inkscape:pageopacity="0.0"
     inkscape:pagecheckerboard="0"
     inkscape:deskcolor="#d1d1d1"
     inkscape:zoom="5.5625"
     inkscape:cx="64"
     inkscape:cy="63.910112"
     inkscape:window-width="1280"
     inkscape:window-height="1001"
     inkscape:window-x="-8"
     inkscape:window-y="-8"
     inkscape:window-maximized="1"
     inkscape:current-layer="svg6" />
  <mask
     id="mask0_1585_2418"
     style="mask-type:alpha"
     maskUnits="userSpaceOnUse"
     x="0"
     y="0"
     width="128"
     height="128">
    <rect
       width="128"
       height="128"
       fill="#C4C4C4"
       id="rect1" />
  </mask>
  <g
     mask="url(#mask0_1585_2418)"
     id="g6">
    <path
       d="M83.0058 93.3663L31.4766 46.8828L43.9685 33.1561L95.1854 79.6396L83.0058 93.3663Z"
       fill="white"
       id="path1" />
    <path
       d="M43.3437 93.0542L31.1641 79.0156L83.6302 33.468L95.4975 47.5067L43.3437 93.0542Z"
       fill="white"
       id="path2" />
    <path
       d="M51.4696 24.7328C57.7155 34.7159 81.1379 34.4039 74.8919 17.8695C72.0813 10.6942 60.8385 2.27103 54.5926 9.44633C51.1573 13.19 49.5958 21.9251 51.4696 24.7328Z"
       fill="white"
       id="path3" />
    <path
       d="M70.2079 121.443C79.5768 114.58 78.0153 91.1824 61.7758 98.3577C54.593 101.477 47.0978 113.332 54.593 119.26C58.6528 122.379 67.3972 123.315 70.2079 121.443Z"
       fill="white"
       id="path4" />
    <path
       d="M103.141 52.7121C93.1584 58.9581 93.4704 82.3805 110.005 76.1345C117.18 73.3238 125.603 62.0811 118.428 55.8351C114.684 52.3998 105.949 50.8383 103.141 52.7121Z"
       fill="white"
       id="path5" />
    <path
       d="M6.4296 71.4504C13.2929 80.8194 36.6907 79.2579 29.5154 63.0184C26.3957 55.8355 14.5408 48.3404 8.6134 55.8355C5.4937 59.8954 4.55779 68.6397 6.4296 71.4504Z"
       fill="white"
       id="path6" />
  </g>
</svg>
