<?xml version="1.0" encoding="UTF-8" standalone="no"?>
<svg
   width="128"
   height="128"
   version="1.1"
   id="svg3"
   sodipodi:docname="loot-perk-splinter.svg"
   inkscape:version="1.3.2 (091e20e, 2023-11-25, custom)"
   xmlns:inkscape="http://www.inkscape.org/namespaces/inkscape"
   xmlns:sodipodi="http://sodipodi.sourceforge.net/DTD/sodipodi-0.dtd"
   xmlns="http://www.w3.org/2000/svg"
   xmlns:svg="http://www.w3.org/2000/svg">
  <defs
     id="defs3" />
  <sodipodi:namedview
     id="namedview3"
     pagecolor="#ffffff"
     bordercolor="#000000"
     borderopacity="0.25"
     inkscape:showpageshadow="2"
     inkscape:pageopacity="0.0"
     inkscape:pagecheckerboard="0"
     inkscape:deskcolor="#d1d1d1"
     inkscape:zoom="5.5625"
     inkscape:cx="64"
     inkscape:cy="63.910112"
     inkscape:window-width="1280"
     inkscape:window-height="1001"
     inkscape:window-x="-8"
     inkscape:window-y="-8"
     inkscape:window-maximized="1"
     inkscape:current-layer="svg3" />
  <g
     fill="#fff"
     id="g1">
    <path
       d="M50.774 64h26.451v39.676h-26.45zM76.384 59.59l-3.567-7.132V41.957H55.183v10.5l-3.567 7.134zM68.925 13.227l-2.813-9.374a2.205 2.205 0 0 0-4.223 0l-2.815 9.374c-2.371 7.907-3.615 16.08-3.81 24.322h17.472c-.196-8.242-1.44-16.415-3.811-24.322zM75.267 113.785c.068-.18.139-.36.187-.549l1.287-5.151H51.258l1.285 5.151c.048.19.119.368.19.55-1.187.995-1.958 2.472-1.958 4.139v2.363a5.436 5.436 0 0 0 5.431 5.43h15.589a5.438 5.438 0 0 0 5.43-5.43v-2.363c.001-1.667-.77-3.144-1.958-4.14z"
       id="path1" />
  </g>
  <g
     fill="#fff"
     id="g2">
    <path
       d="M92.913 71.395l9.867 9.867-20.633 20.634L82 82.308zM104.111 79.304l1.33-3.992 3.918-3.917-6.578-6.578-3.918 3.917-3.991 1.33zM118.624 59.226l2.448-4.547a1.164 1.164 0 0 0-1.575-1.575l-4.547 2.447c-3.835 2.065-7.347 4.65-10.495 7.651l6.518 6.518c3.002-3.147 5.587-6.66 7.651-10.494z"
       id="path2" />
  </g>
  <g
     fill="#fff"
     id="g3">
    <path
       d="M35.087 71.395l-9.867 9.867 20.633 20.634L46 82.308zM25.22 64.817l3.917 3.917 3.991 1.33-9.239 9.24-1.33-3.992-3.918-3.917zM9.376 59.226l-2.448-4.547a1.164 1.164 0 0 1 1.575-1.575l4.547 2.447c3.835 2.065 7.347 4.65 10.495 7.651l-6.518 6.518c-3.002-3.147-5.587-6.66-7.651-10.494z"
       id="path3" />
  </g>
</svg>
