<?xml version="1.0" encoding="UTF-8" standalone="no"?>
<svg
   width="172"
   height="172"
   viewBox="0 0 172 172"
   fill="none"
   version="1.1"
   id="svg2"
   sodipodi:docname="loading-logo.svg"
   inkscape:version="1.3.2 (091e20e, 2023-11-25, custom)"
   xmlns:inkscape="http://www.inkscape.org/namespaces/inkscape"
   xmlns:sodipodi="http://sodipodi.sourceforge.net/DTD/sodipodi-0.dtd"
   xmlns="http://www.w3.org/2000/svg"
   xmlns:svg="http://www.w3.org/2000/svg">
  <defs
     id="defs2" />
  <sodipodi:namedview
     id="namedview2"
     pagecolor="#ffffff"
     bordercolor="#000000"
     borderopacity="0.25"
     inkscape:showpageshadow="2"
     inkscape:pageopacity="0.0"
     inkscape:pagecheckerboard="0"
     inkscape:deskcolor="#d1d1d1"
     inkscape:zoom="4.1395349"
     inkscape:cx="86"
     inkscape:cy="85.879213"
     inkscape:window-width="1280"
     inkscape:window-height="1001"
     inkscape:window-x="-8"
     inkscape:window-y="-8"
     inkscape:window-maximized="1"
     inkscape:current-layer="svg2" />
  <circle
     cx="85.9997"
     cy="86.1891"
     r="12.8278"
     fill="white"
     id="circle1" />
  <path
     opacity="0.9"
     fill-rule="evenodd"
     clip-rule="evenodd"
     d="M86.0005 164.419C129.206 164.419 164.231 129.394 164.231 86.188C164.231 42.9822 129.206 7.95703 86.0005 7.95703C42.7947 7.95703 7.76953 42.9822 7.76953 86.188C7.76953 129.394 42.7947 164.419 86.0005 164.419ZM86.0005 171.419C133.072 171.419 171.231 133.26 171.231 86.188C171.231 39.1162 133.072 0.957031 86.0005 0.957031C38.9287 0.957031 0.769531 39.1162 0.769531 86.188C0.769531 133.26 38.9287 171.419 86.0005 171.419Z"
     fill="white"
     id="path1" />
  <path
     fill-rule="evenodd"
     clip-rule="evenodd"
     d="M120.024 148.531C109.921 154.056 98.3278 157.198 86.0007 157.198C73.4495 157.198 61.6589 153.941 51.4276 148.227L75.2391 102.408C78.3213 104.457 82.0211 105.651 85.9998 105.651C89.451 105.651 92.6924 104.753 95.5028 103.177L120.024 148.531ZM119.629 23.6328C141.884 35.6215 157.009 59.1389 157.009 86.189C157.009 87.1613 156.99 88.1289 156.951 89.0917H105.246C105.387 88.1451 105.461 87.1762 105.461 86.1901C105.461 79.019 101.582 72.7538 95.808 69.378L119.629 23.6328ZM49.1454 25.4818C28.6879 37.9281 15.0185 60.4241 14.9922 86.1147H66.5392C66.5657 79.1334 70.2682 73.0188 75.8117 69.606L49.1454 25.4818Z"
     fill="white"
     id="path2" />
</svg>
